<svg preserveAspectRatio="none" width="100%" height="100%" overflow="visible" style="display: block;" viewBox="0 0 1369.6 1369.6" fill="none" xmlns="http://www.w3.org/2000/svg">
<g id="Frame 11">
<g id="Ellipse 1" filter="url(#filter0_f_315_363)">
<circle cx="684.8" cy="684.8" r="502" fill="url(#paint0_radial_315_363)"/>
</g>
<g id="_&#235;&#160;&#136;&#236;&#157;&#180;&#236;&#150;&#180;_1" clip-path="url(#clip0_315_363)">
<path id="Vector" d="M524.053 523.704C525.356 521.245 527.811 520.401 530.347 520.798C532.936 521.204 535.426 522.891 536.517 525.259L536.541 525.312L536.572 525.362C537.879 527.505 538.469 531.009 538.704 535.307C538.936 539.571 538.813 544.368 538.835 549.038V549.051L538.836 549.065C538.992 553.887 538.836 559.767 538.802 565.586C538.769 571.368 538.856 577.088 539.516 581.466L539.52 581.49L539.524 581.512C539.956 583.691 540.954 585.286 542.36 586.378C543.746 587.456 545.451 587.986 547.214 588.197C550.668 588.609 554.629 587.823 557.624 587.12H557.833L557.933 587.1C563.047 586.054 567.771 584.675 572.406 584.718L572.438 584.719L572.47 584.717C575.841 584.533 579.346 585.935 581.613 588.224C583.85 590.483 584.827 593.528 583.414 596.795L583.412 596.802C582.101 599.887 578.857 601.182 574.847 601.431C570.878 601.677 566.51 600.861 563.563 600.094L563.555 600.092L562.938 599.923C561.516 599.503 560.222 598.917 558.806 598.332C557.214 597.674 555.51 597.038 553.51 596.822L553.48 596.818L553.449 596.817L552.789 596.795C546.034 596.674 541.546 599.58 538.704 604.013C535.828 608.498 534.673 614.477 534.332 620.26C532.187 635.762 530.982 651.434 530.089 667.086C529.864 669.533 529.86 672.053 529.9 674.564C529.941 677.104 530.026 679.615 529.988 682.109C529.911 687.082 529.334 691.781 527.016 695.889C525.372 698.497 523.3 699.836 521.202 700.286C519.081 700.74 516.835 700.307 514.847 699.19C510.853 696.947 508.094 692.075 509.602 686.714L509.61 686.683C510.407 683.463 511.846 680.369 513.392 677.21C514.923 674.082 516.569 670.873 517.666 667.545L517.668 667.542C519.076 663.223 519.534 660.766 520.003 656.731C520.47 652.724 520.945 647.189 522.394 636.595C523.239 630.422 524.133 625.217 524.916 620.809C525.696 616.412 526.374 612.774 526.78 609.779C527.577 603.885 527.419 599.942 524.313 597.398L524.311 597.396C523.133 596.436 521.749 595.982 520.015 595.747C518.308 595.514 516.151 595.481 513.386 595.437H513.384C506.983 595.346 502.899 596.361 499.384 597.228C495.901 598.087 493.063 598.775 488.961 598.204H488.959C484.471 597.589 481.695 596.091 480.219 594.385C478.772 592.712 478.494 590.753 479.15 588.906C480.482 585.154 485.892 581.553 494.114 582.839L494.146 582.844L494.177 582.847C497.277 583.13 500.403 583.846 503.64 584.494C506.842 585.134 510.129 585.7 513.398 585.608H513.403C517.756 585.467 520.904 584.009 523.095 581.626C525.26 579.272 526.396 576.117 526.954 572.743C527.923 566.875 527.189 559.964 526.697 554.642L526.506 552.466C526.273 547.481 524.684 542.355 523.7 537.596C522.697 532.75 522.27 528.141 524.053 523.704Z" fill="var(--fill-0, #EB3604)" stroke="var(--stroke-0, white)" stroke-width="2"/>
<path id="Vector_2" d="M606.226 687.2L606.284 687.251L606.71 687.215C612.33 686.733 618.89 688.53 623.157 691.993C625.278 693.715 626.789 695.811 627.387 698.199C627.981 700.568 627.705 703.334 626.063 706.472C623.325 711.106 616.963 713.266 611.806 711.689L611.785 711.683L611.765 711.677L611.309 711.55C609.055 710.872 607.11 709.572 604.988 708.224C602.776 706.819 600.378 705.371 597.453 704.972L597.429 704.969L597.404 704.966L597.012 704.94C592.996 704.746 590.152 707.006 588.218 709.96C586.238 712.982 585.111 716.852 584.493 720.015L584.492 720.02C583.533 725.101 583.575 730.455 583.695 735.568L583.749 737.742C583.939 745.685 583.915 753.061 583.675 760.539C583.503 764.643 583.462 770.401 582.205 775.321C580.955 780.212 578.622 783.844 574.164 784.47C571.533 784.151 569.965 782.855 569.009 780.954C568.001 778.947 567.654 776.216 567.695 773.125C567.736 770.053 568.156 766.753 568.583 763.667C569.003 760.633 569.44 757.748 569.482 755.621C569.962 748.784 569.974 741.753 568.661 734.935L568.53 734.275C567.598 729.089 565.351 724.557 562.883 720.262C560.384 715.914 557.713 711.889 555.737 707.506L555.733 707.497L555.729 707.488L555.554 707.098C554.714 705.129 554.437 702.861 554.88 700.917C555.344 698.882 556.579 697.228 558.819 696.518L558.827 696.516L558.835 696.513C560.695 695.889 562.892 696.077 565.288 696.569C566.477 696.813 567.667 697.121 568.865 697.419C570.038 697.71 571.218 697.989 572.342 698.163C577.224 699.209 581.259 697.772 585.004 695.736C586.862 694.725 588.705 693.535 590.521 692.426C592.357 691.306 594.201 690.247 596.155 689.426L596.156 689.425C599.332 688.087 602.73 687.394 606.226 687.2Z" fill="var(--fill-0, #EB3604)" stroke="var(--stroke-0, white)" stroke-width="2"/>
<path id="Vector_3" d="M765.845 564.121C768.217 563.351 770.92 563.654 772.945 564.786C774.927 565.893 776.186 567.736 775.995 570.127C775.153 574.216 772.395 577.171 768.996 579.977C767.253 581.416 765.51 582.687 763.696 584.141C761.946 585.544 760.244 587.033 758.834 588.723C752.568 595.633 749.385 604.568 747.866 613.615C747.072 617.855 746.893 621.795 747.328 625.096C747.761 628.38 748.819 631.152 750.615 632.904C752.475 634.718 754.992 635.307 757.954 634.451C760.853 633.613 764.197 631.396 767.96 627.621L767.966 627.615C774.066 621.397 777.343 613.109 778.953 604.744C779.267 603.232 779.545 601.692 779.821 600.166C780.098 598.635 780.372 597.119 780.68 595.63C781.296 592.65 782.04 589.838 783.172 587.375L783.177 587.363L783.181 587.352C785.28 582.474 788.817 580.488 791.613 580.759C794.23 581.013 796.785 583.325 797.108 588.376L797.133 588.873C797.214 592.008 796.739 595.127 796.091 598.291C795.453 601.405 794.617 604.683 794.058 607.876C792.554 616.154 791.39 624.707 791.001 633.357C790.656 639.016 790.701 645.406 792.296 651.115C793.848 656.67 796.889 661.643 802.5 664.622L803.051 664.904C807.116 667.079 811.782 668.496 816.114 670.075C820.377 671.628 824.379 673.354 827.607 676.119L827.918 676.39C831.304 679.53 832.903 683.204 832.197 686.753C831.618 688.995 830.542 690.312 829.259 691.038C827.946 691.78 826.286 691.979 824.439 691.718C820.835 691.209 816.86 688.991 814.355 686.524L814.118 686.284C810.727 682.774 807.991 679.754 805.763 677.759C804.643 676.758 803.587 675.953 802.577 675.462C801.618 674.997 800.623 674.777 799.628 675.017L799.44 675.068C798.566 675.322 797.922 675.912 797.457 676.567C796.993 677.219 796.664 677.991 796.425 678.731C795.948 680.202 795.768 681.743 795.683 682.395C794.614 690.176 790.284 701.604 783.743 712.005C777.193 722.423 768.549 731.613 758.971 735.157L758.963 735.159L758.956 735.162C758.631 735.288 755.157 736.53 750.582 736.911C746.471 737.252 741.581 736.888 737.283 734.505L735.91 733.559C730.163 729.603 726.956 722.046 726.304 713.684C725.653 705.34 727.572 696.425 731.805 689.967L731.809 689.958L731.812 689.956C731.815 689.951 731.82 689.943 731.828 689.932C731.843 689.91 731.867 689.873 731.9 689.825C731.968 689.727 732.073 689.579 732.22 689.383C732.512 688.993 732.967 688.415 733.605 687.687C734.882 686.231 736.893 684.174 739.802 681.81C745.617 677.083 755.032 671.12 769.373 666.281L769.38 666.278L769.387 666.276C770.757 665.791 771.99 665.263 774.305 664.237L774.304 664.236C775.501 663.724 776.204 663.382 776.99 662.75L776.991 662.751C778.24 661.803 778.978 660.557 779.769 659.268L779.772 659.263C780.841 657.502 782.391 653.754 782.745 648.804C782.903 646.761 782.636 643.883 781.821 641.61C781.415 640.478 780.837 639.392 780.013 638.657C779.155 637.891 778.049 637.532 776.783 637.871C776.109 637.966 775.381 638.241 774.664 638.583C773.902 638.945 773.08 639.416 772.245 639.929C771.409 640.443 770.538 641.011 769.681 641.568C768.82 642.129 767.972 642.68 767.161 643.173L767.138 643.187L767.116 643.202C758.898 648.819 746.864 649.915 739.651 642.72C735.069 638.127 733.176 631.034 732.954 623.415C732.747 616.294 734.005 608.87 735.731 602.962L736.083 601.801C739.673 591.54 746.526 581.607 753.567 573.05C756.863 569.088 761.075 565.423 765.8 564.134L765.822 564.129L765.845 564.121ZM779.803 673.018C779.035 672.997 777.982 673.23 776.806 673.602C775.599 673.984 774.158 674.548 772.569 675.262C769.39 676.693 765.571 678.753 761.779 681.258C757.99 683.762 754.203 686.726 751.104 689.967C748.014 693.2 745.55 696.768 744.502 700.485L744.498 700.499L744.494 700.513C744.466 700.625 744.274 701.26 744.138 702.03C743.596 704.981 743.73 708.373 744.647 711.395C745.563 714.41 747.297 717.17 750.049 718.663L750.063 718.671L750.079 718.678C750.61 718.943 751.022 719.127 751.269 719.226L751.288 719.233L751.307 719.24C753.996 720.191 756.727 719.63 759.035 718.675C761.346 717.72 763.369 716.311 764.69 715.397L764.698 715.392C772.327 710.004 777.856 701.263 781.275 693.507C782.989 689.619 784.188 685.942 784.86 683.003C785.196 681.534 785.404 680.23 785.474 679.164C785.541 678.155 785.499 677.189 785.189 676.514H785.19C784.833 675.724 784.362 675.131 783.983 674.734C783.793 674.535 783.623 674.382 783.496 674.276C783.432 674.223 783.378 674.181 783.339 674.151C783.319 674.136 783.303 674.123 783.29 674.114C783.283 674.109 783.278 674.105 783.273 674.102C783.271 674.101 783.268 674.1 783.266 674.098L783.263 674.095H783.263L783.262 674.094C783.26 674.093 783.257 674.091 783.255 674.089C783.25 674.086 783.243 674.082 783.235 674.077C783.22 674.067 783.201 674.053 783.177 674.038C783.128 674.007 783.062 673.966 782.978 673.919C782.812 673.824 782.576 673.701 782.28 673.577C781.69 673.329 780.845 673.069 779.824 673.019L779.813 673.018H779.803Z" fill="var(--fill-0, #EB3604)" stroke="var(--stroke-0, white)" stroke-width="2"/>
<path id="Vector_4" d="M613.009 584.712C616.43 584.32 619.429 585.339 621.477 586.352C623.247 588.808 623.346 591.549 622.289 594.552C621.205 597.632 618.93 600.896 616.12 604.161C613.319 607.416 610.058 610.594 607.063 613.52C604.102 616.413 601.359 619.1 599.695 621.308C596.663 625.123 593.082 629.471 590.615 634.165C588.136 638.883 586.715 644.073 588.139 649.563L588.149 649.602L588.163 649.641C589.077 652.253 590.539 654.002 592.377 654.97C594.201 655.931 596.27 656.057 598.294 655.668C602.298 654.899 606.384 652.07 608.849 648.92C611.823 645.556 613.831 641.523 615.545 637.478C617.288 633.362 618.692 629.337 620.526 625.703L620.537 625.683L620.547 625.662C622.243 621.88 625.523 618.531 628.989 617.229C630.704 616.585 632.427 616.454 634.03 616.963C635.528 617.439 637.017 618.503 638.346 620.419L638.608 620.814C639.944 622.903 640.534 624.982 640.694 627.958C640.857 630.989 640.574 634.87 640.192 640.573V640.575C639.858 645.679 639.61 649.554 639.565 652.341C639.543 653.735 639.57 654.888 639.669 655.805C639.763 656.685 639.936 657.476 640.29 658.054V658.055C642.169 661.167 645.569 663.34 649.254 664.973C652.957 666.613 657.112 667.776 660.645 668.773L660.647 668.774C661.856 669.111 662.924 669.374 663.843 669.608C664.772 669.844 665.536 670.049 666.186 670.277C667.456 670.722 668.188 671.221 668.717 672.104L668.721 672.113C669.636 673.607 669.741 675.896 669.058 678.149C668.379 680.392 666.999 682.329 665.291 683.191C664.95 683.361 664.596 683.489 664.12 683.535C663.63 683.583 662.964 683.55 662.002 683.333C660.057 682.895 657.045 681.74 652.085 679.236C645.98 676.15 642.616 673.875 640.014 672.147C637.394 670.406 635.465 669.161 632.313 668.271H632.312C628.734 667.262 626.083 667.397 623.023 667.979C619.927 668.568 616.707 669.533 611.45 670.335H611.446C605.446 671.276 597.91 672.648 591.009 672.692C584.049 672.736 578.141 671.419 575.039 667.379L575.036 667.376L574.629 666.833C570.515 661.181 569.517 654.35 570.362 647.38C571.235 640.178 574.069 632.908 577.356 626.841L577.358 626.838C582.088 618.03 588.974 609.63 595.264 601.168C598.975 596.194 601.776 592.271 604.527 589.459C607.244 586.682 609.813 585.098 613.008 584.711L613.009 584.712Z" fill="var(--fill-0, #EB3604)" stroke="var(--stroke-0, white)" stroke-width="2"/>
<g id="Group">
<path id="Vector_5" d="M621.315 764.875C621.166 758.449 627.786 753.903 633.463 756.712L633.463 756.712L633.913 757.004C638.021 759.663 639.485 764.008 639.8 769.018C640.117 774.069 639.261 779.442 638.942 784.147C638.168 791.145 637.686 797.621 638.851 804.551C639.062 806.293 639.389 808.141 639.695 809.981C640.005 811.845 640.296 813.718 640.447 815.559C640.748 819.248 640.473 822.67 638.781 825.486C637.696 827.205 635.887 828.201 633.812 828.504C631.73 828.808 629.443 828.398 627.543 827.365L627.517 827.352L627.155 827.16C625.392 826.191 624.308 824.99 623.661 823.66C622.961 822.223 622.732 820.555 622.808 818.718C622.883 816.877 623.262 814.923 623.73 812.941C624.187 811.009 624.753 808.959 625.137 807.139C626.881 799.091 625.726 790.299 624.573 782.331C624.152 779.288 623.295 776.314 622.585 773.464C621.865 770.578 621.282 767.776 621.315 764.909L621.316 764.891L621.315 764.875Z" fill="var(--fill-0, #EB3604)" stroke="var(--stroke-0, white)" stroke-width="2"/>
<path id="Vector_6" d="M625.832 718.809C629.186 716.522 633.236 715.989 637.03 718.714L637.03 718.715L637.391 719.011C641.261 722.176 643.283 728.187 642.83 733.782C642.378 739.351 639.529 744.122 634.071 745.268C625.311 746.916 617.278 738.589 619.173 729.684L619.182 729.644L619.187 729.603C619.726 725.394 622.353 721.181 625.832 718.809Z" fill="var(--fill-0, #EB3604)" stroke="var(--stroke-0, white)" stroke-width="2"/>
</g>
<path id="Vector_7" d="M842.384 566.291C847.922 565.256 853.011 565.909 856.349 569.659L856.394 569.71C859.834 574.203 859.933 579.643 859.008 585.963C857.26 596.263 851.661 605.974 845.069 614.217L845.067 614.22C842.708 617.187 840.211 619.988 837.604 622.684L836.48 623.833C835.178 625.152 833.471 626.756 831.959 628.328C830.417 629.93 828.922 631.651 827.885 633.397C826.855 635.135 826.2 637.03 826.556 638.929C826.92 640.865 828.281 642.545 830.712 643.946L830.75 643.968L830.789 643.986C834.551 645.739 839.229 645.383 842.969 643.139C846.877 640.812 849.309 636.99 851.667 632.956L851.67 632.951C854.306 628.377 856.427 624.207 860.236 621.382L860.263 621.36C862.09 619.904 864.408 619.155 866.563 619.265C868.696 619.373 870.639 620.314 871.869 622.221C875.289 627.787 873.131 634.375 869.577 640.484C865.752 646.714 860.534 651.489 853.659 655.372L853.658 655.373C844.788 660.402 835.343 661.86 827.026 659.759C818.726 657.662 811.461 651.998 806.941 642.602L806.94 642.6L806.676 642.046C795.678 618.547 804.22 586.005 826.946 572.522L826.95 572.52C831.156 569.996 836.865 567.323 842.384 566.291ZM845.969 575.881C844.298 575.708 842.542 575.993 841.054 576.44L841.047 576.443L841.039 576.445C833.042 578.993 826.387 585.759 822.551 593.403L822.548 593.411C819.908 598.786 819.738 604.3 822.169 607.508C823.418 609.156 825.301 610.104 827.651 610.073C829.96 610.043 832.666 609.074 835.693 607.045L835.694 607.046C839.154 604.732 844.088 599.699 847.561 594.281C849.302 591.567 850.713 588.699 851.374 585.977C852.033 583.258 851.971 580.562 850.581 578.336L850.52 578.239L850.438 578.158L850.429 578.149C849.277 576.69 847.626 576.053 845.969 575.881Z" fill="var(--fill-0, #EB3604)" stroke="var(--stroke-0, white)" stroke-width="2"/>
<path id="Vector_8" d="M774.442 735.864C779.779 734.861 784.684 735.46 787.956 738.974L788.109 739.171C791.503 743.584 791.608 748.91 790.682 755.115C788.981 765.196 783.471 774.688 777.053 782.76C774.396 786.069 771.609 789.198 768.648 792.149L768.639 792.158C767.387 793.437 765.686 795.047 764.223 796.57C762.715 798.14 761.248 799.826 760.232 801.536C759.221 803.236 758.575 805.094 758.925 806.957C759.282 808.858 760.624 810.502 763.01 811.869L763.049 811.892L763.09 811.91C766.806 813.615 771.344 813.258 775.033 811.11L775.043 811.104C778.86 808.823 781.247 805.091 783.563 801.098L783.568 801.09C786.107 796.616 788.232 792.531 791.948 789.795L791.963 789.784L791.977 789.773C793.758 788.361 796.021 787.633 798.129 787.737C800.214 787.84 802.113 788.75 803.319 790.59C806.687 796.014 804.543 802.412 801.076 808.44C797.293 814.546 792.204 819.233 785.507 823.027C776.815 827.945 767.572 829.371 759.434 827.314C751.312 825.262 744.202 819.72 739.772 810.523L739.771 810.521L739.513 809.979C728.73 786.971 737.091 755.173 759.331 741.955L759.333 741.954C763.452 739.496 769.039 736.879 774.442 735.864ZM777.99 745.221C776.346 745.053 774.612 745.34 773.127 745.786L773.118 745.788L773.11 745.791C765.295 748.294 758.728 754.924 755.024 762.397L755.023 762.399C752.427 767.663 752.257 773.078 754.649 776.23C755.879 777.851 757.732 778.782 760.044 778.75C762.315 778.719 764.974 777.764 767.945 775.768L767.945 775.769C771.339 773.499 776.172 768.566 779.573 763.259C781.277 760.6 782.659 757.791 783.305 755.124C783.95 752.461 783.887 749.817 782.519 747.635L782.458 747.538L782.377 747.458L782.367 747.448C781.238 746.012 779.62 745.387 777.99 745.221Z" fill="var(--fill-0, #EB3604)" stroke="var(--stroke-0, white)" stroke-width="2"/>
<path id="Vector_9" d="M580.701 823.208C584.845 822.428 588.568 822.927 590.99 825.672L591.256 825.972C593.582 829.204 593.621 833.114 592.941 837.696C591.642 845.42 587.425 852.69 582.478 858.894V858.895C580.453 861.44 578.29 863.815 576.032 866.109L576.031 866.11C575.078 867.081 573.745 868.339 572.621 869.507C571.455 870.718 570.31 872.03 569.514 873.371C568.722 874.703 568.196 876.194 568.481 877.714C568.773 879.268 569.862 880.594 571.733 881.683L571.774 881.707L571.816 881.726C574.728 883.077 578.333 882.811 581.225 881.101L581.227 881.1C584.243 879.307 586.096 876.373 587.874 873.317L587.879 873.308C589.837 869.859 591.473 866.748 594.256 864.678L594.268 864.67L594.28 864.66C595.615 863.604 597.308 863.065 598.874 863.146C600.416 863.226 601.799 863.901 602.671 865.247H602.672C605.199 869.339 603.632 874.142 600.931 878.737C598.04 883.423 594.155 887.003 589.017 889.91H589.016C582.377 893.671 575.321 894.752 569.118 893.184C562.932 891.621 557.507 887.402 554.126 880.384L554.125 880.382L553.735 879.551C545.787 861.989 552.209 837.877 569.131 827.872L569.134 827.87C572.294 825.989 576.576 823.984 580.701 823.208ZM583.381 829.929C582.082 829.801 580.731 830.032 579.59 830.364L579.576 830.368L579.562 830.373C573.444 832.342 568.396 837.46 565.495 843.286L565.494 843.289C563.479 847.374 563.308 851.645 565.225 854.174C566.218 855.483 567.715 856.232 569.564 856.213C571.374 856.193 573.467 855.443 575.781 853.902L575.787 853.898C578.418 852.119 582.157 848.3 584.789 844.193C586.108 842.135 587.185 839.948 587.69 837.859C588.194 835.774 588.153 833.664 587.054 831.906L586.993 831.809L586.903 831.719C585.975 830.55 584.669 830.056 583.381 829.929Z" fill="var(--fill-0, white)" stroke="var(--stroke-0, #EB3604)" stroke-width="2"/>
<path id="Vector_10" d="M711.545 651.967C711.414 641.301 710.229 631.473 707.032 621.696L706.717 620.751C704.767 614.526 701.742 608.505 698.705 602.898C696.934 599.483 693.945 594.558 690.471 591.791C688.724 590.401 686.714 589.444 684.586 589.68C682.561 589.904 680.69 591.175 679.018 593.576L678.686 594.072C673.598 601.841 671.967 610.319 672.279 619.871C672.102 625.72 672.948 631.728 673.437 637.489C673.932 643.314 674.073 648.956 672.584 654.333C671.703 657.478 669.497 659.674 667.182 660.316C666.037 660.633 664.857 660.577 663.747 660.076C662.633 659.574 661.521 658.594 660.579 656.951C658.466 653.062 658.114 648.666 658.35 644.026C658.469 641.702 658.732 639.355 658.98 636.992C659.228 634.643 659.461 632.28 659.507 629.986L659.506 629.985C660.042 620.255 658.966 610.137 654.915 601.328H654.916C654.189 599.665 653.294 597.911 652.421 596.151C651.54 594.377 650.673 592.581 649.965 590.779C648.585 587.268 647.873 583.883 648.749 580.763L648.839 580.462C649.904 577.424 652.169 575.985 654.92 575.533C657.293 575.144 659.999 575.505 662.467 576.271L662.457 576.281L663.823 576.739L663.99 576.803H664.012C668.824 578.415 673.399 579.561 678.546 579.561H678.554C684.413 579.515 690.832 579.237 695.99 582.186L696.027 582.205C704.693 586.694 709.53 596.104 713.559 605.159L713.561 605.164C722.07 624.009 722.531 642.393 720.662 663.632L720.661 663.637C720.125 670.131 719.679 676.76 719.366 683.258C719.071 687.351 718.896 692.505 717.598 696.805C716.315 701.057 714.041 704.149 709.715 704.654C707.006 704.719 704.399 703.464 702.396 701.443C700.386 699.413 699.057 696.683 698.869 693.954C698.777 689.973 700.895 687.058 703.518 683.928C706.076 680.876 709.165 677.586 710.175 673.085C711.911 666.346 711.545 658.701 711.545 651.98V651.967Z" fill="var(--fill-0, #EB3604)" stroke="var(--stroke-0, white)" stroke-width="2"/>
<path id="Vector_11" d="M650.006 492.585C653.987 489.899 658.891 487.879 663.532 488.078V488.153L664.462 488.218C669.737 488.584 673.873 493.118 673.007 498.215L673.001 498.252C672.608 501.24 670.977 504.383 668.873 507.582C667.829 509.171 666.687 510.746 665.553 512.301C664.425 513.848 663.301 515.383 662.316 516.86L662.302 516.88L662.29 516.901C661.473 518.265 660.25 519.831 658.844 521.545C657.457 523.236 655.889 525.073 654.465 526.9C653.039 528.731 651.708 530.612 650.778 532.438C649.856 534.25 649.267 536.122 649.48 537.9L649.491 537.989L649.517 538.073C650.213 540.356 652.207 541.322 654.182 541.512C656.131 541.698 658.284 541.174 659.842 540.255L659.843 540.256C661.276 539.455 662.489 538.236 663.564 536.883C664.64 535.529 665.622 533.981 666.562 532.482C667.513 530.965 668.418 529.503 669.377 528.236C670.338 526.968 671.3 525.967 672.328 525.339L672.358 525.32L672.387 525.3C674.865 523.531 678.223 524.267 679.429 526.753L679.539 526.999C680.895 530.362 679.518 534.592 676.396 538.976C671.056 546.373 663.33 550.753 655.851 551.13C648.435 551.504 641.133 547.953 636.464 539.206C629.022 523.27 635.357 502.417 650.004 492.586L650.006 492.585ZM661.158 502.036L660.989 501.783C660.625 501.239 660.105 500.94 659.527 500.87C659.003 500.806 658.502 500.938 658.107 501.088C657.701 501.242 657.31 501.454 656.984 501.643C656.618 501.854 656.392 501.999 656.155 502.128L656.098 502.159L656.046 502.196C654.612 503.233 653.025 504.614 651.746 506.183C650.478 507.736 649.437 509.567 649.254 511.495L649.247 511.578L649.252 511.661C649.299 512.307 649.524 512.91 650.025 513.323C650.513 513.726 651.099 513.811 651.585 513.783C652.522 513.729 653.515 513.238 654.202 512.773L654.205 512.771C655.645 511.791 657.396 510.121 658.771 508.287C659.461 507.366 660.075 506.379 660.507 505.393C660.933 504.421 661.209 503.39 661.158 502.394V502.036Z" fill="var(--fill-0, white)" stroke="var(--stroke-0, #EB3604)" stroke-width="2"/>
<g id="Group_2">
<path id="Vector_12" d="M735.961 457.753C737.359 457.543 738.525 458.15 739.595 459.508C740.742 460.963 741.666 463.161 742.418 465.697C743.163 468.213 743.711 470.964 744.157 473.457C744.541 475.606 744.856 477.615 745.15 479.044L745.275 479.619C747.268 489.493 750.256 498.896 750.875 508.761V508.767C751.846 522.931 748.787 538.529 740.111 549.432L740.11 549.434C729.312 563.057 707.661 568.481 692.429 559.814L692.405 559.8L692.38 559.789L692.248 559.722C685.175 555.347 682.925 548.945 684.208 543.139C685.503 537.276 690.444 531.827 698.15 529.581L698.164 529.577C702.233 528.326 706.98 528.031 710.63 529.781C713.468 531.228 713.973 532.685 713.725 533.675C713.431 534.851 711.953 536.26 709.025 537.233L708.992 537.244L708.96 537.258C707.975 537.663 706.809 538.038 705.534 538.459C704.277 538.873 702.93 539.326 701.656 539.87C699.235 540.903 696.811 542.375 695.815 544.853L695.731 545.074C694.44 548.45 696.261 552.509 699.884 554.772L699.89 554.776C706.002 558.535 714.686 557.526 721.037 554.704C735.31 548.645 740.456 533.505 741.445 518.95L741.444 518.949C742.299 507.727 741.309 496.227 738.241 485.347C737.812 483.433 737.007 480.967 736.185 478.353C735.346 475.684 734.475 472.816 733.895 470.04C733.313 467.253 733.04 464.636 733.348 462.459C733.643 460.377 734.452 458.779 735.961 457.753Z" fill="var(--fill-0, white)" stroke="var(--stroke-0, #EB3604)" stroke-width="2"/>
<path id="Vector_13" d="M733.001 418.587C734.127 418.527 735.43 418.924 736.876 420.148L736.974 420.246L737.267 420.537H737.33C739.896 423.019 741.547 427.15 741.837 431.417C742.136 435.815 740.974 440.095 738.2 442.691C736.087 444.251 734.207 444.655 732.622 444.381C731.008 444.102 729.53 443.092 728.313 441.512C725.86 438.327 724.677 433.075 725.714 428.287L725.723 428.247L725.729 428.205C726.106 425.323 727.615 422.023 729.705 420.128C730.736 419.193 731.853 418.649 733.001 418.587Z" fill="var(--fill-0, white)" stroke="var(--stroke-0, #EB3604)" stroke-width="2"/>
</g>
<g id="Group_3">
<path id="Vector_14" d="M609.302 451.927C610.699 451.718 611.865 452.324 612.936 453.682C614.083 455.137 615.007 457.336 615.758 459.871C616.503 462.387 617.052 465.138 617.497 467.631C617.881 469.78 618.196 471.79 618.49 473.218L618.615 473.793C620.608 483.667 623.596 493.071 624.215 502.936V502.942C625.186 517.105 622.127 532.703 613.451 543.607L613.45 543.609C602.652 557.231 581.001 562.655 565.77 553.989L565.745 553.975L565.721 553.963L565.588 553.897C558.515 549.522 556.266 543.12 557.548 537.314C558.843 531.45 563.784 526.001 571.49 523.755L571.504 523.751C575.573 522.501 580.32 522.206 583.971 523.955C586.809 525.402 587.313 526.86 587.065 527.85C586.771 529.026 585.294 530.435 582.365 531.408L582.332 531.418L582.3 531.432C581.315 531.837 580.149 532.213 578.874 532.633C577.617 533.047 576.27 533.5 574.996 534.044C572.576 535.078 570.152 536.549 569.155 539.028L569.071 539.248C567.781 542.625 569.601 546.684 573.225 548.947L573.23 548.951C579.342 552.709 588.027 551.7 594.377 548.878C608.651 542.82 613.796 527.68 614.785 513.124L614.784 513.123C615.639 501.901 614.649 490.402 611.581 479.522C611.153 477.607 610.348 475.142 609.525 472.528C608.686 469.859 607.816 466.99 607.235 464.214C606.653 461.427 606.38 458.811 606.688 456.633C606.983 454.551 607.792 452.953 609.302 451.927Z" fill="var(--fill-0, white)" stroke="var(--stroke-0, #EB3604)" stroke-width="2"/>
<path id="Vector_15" d="M606.296 412.806C607.423 412.746 608.725 413.143 610.171 414.367L610.27 414.465L610.563 414.756H610.625C613.191 417.238 614.843 421.369 615.133 425.636C615.432 430.034 614.27 434.314 611.495 436.91C609.383 438.47 607.503 438.874 605.917 438.6C604.304 438.321 602.825 437.311 601.609 435.731C599.156 432.546 597.973 427.294 599.01 422.506L599.019 422.466L599.025 422.424C599.402 419.542 600.911 416.242 603 414.347C604.031 413.412 605.148 412.868 606.296 412.806Z" fill="var(--fill-0, white)" stroke="var(--stroke-0, #EB3604)" stroke-width="2"/>
</g>
<path id="Vector_16" d="M802.01 503.833L802.009 503.816C801.922 501.414 802.177 496.609 803.217 492.881C803.744 490.992 804.43 489.547 805.235 488.778C805.616 488.413 805.993 488.23 806.377 488.185C806.766 488.139 807.273 488.221 807.936 488.585L808.162 488.709H808.173C809.423 489.869 810.292 491.466 810.914 493.29C811.579 495.24 811.937 497.373 812.203 499.36C812.876 504.385 812.213 509.558 811.823 514.93C811.438 520.222 811.329 525.652 813.266 530.88H813.267C813.75 532.403 814.525 534.237 815.239 536.042C815.967 537.883 816.646 539.725 817.009 541.381C817.38 543.071 817.373 544.366 816.954 545.232C816.594 545.977 815.809 546.629 813.967 546.782C811.84 546.562 809.754 545.568 807.454 544.472C805.21 543.403 802.756 542.239 800.143 542.036H800.144C796.873 541.655 793.463 542.514 790.255 543.303C786.968 544.112 783.867 544.857 780.908 544.526H780.909C773.525 543.666 769.171 539.179 766.559 533.107C763.926 526.984 763.113 519.339 762.869 512.45H762.87C762.691 506.224 762.885 499.503 765.409 494.091L765.419 494.07L765.428 494.047C766.61 491.164 769.034 489.318 771.196 489.004C772.255 488.851 773.229 489.063 774.017 489.658C774.807 490.254 775.515 491.315 775.881 493.053H775.882C776.455 496.09 775.603 499.614 774.39 503.402C773.213 507.077 771.682 511.028 771.193 514.582C770.182 520.67 771.029 527.658 775.008 532.708L775.018 532.72C778.992 537.615 784.65 538.632 789.65 537.034C794.602 535.45 798.957 531.294 800.534 525.772C801.692 522.194 802.053 518.482 802.132 514.796C802.21 511.172 802.01 507.35 802.01 503.852V503.833Z" fill="var(--fill-0, white)" stroke="var(--stroke-0, #EB3604)" stroke-width="2"/>
<path id="Vector_17" d="M780.042 840.387C781.354 839.468 783.063 839.541 784.197 839.75L784.374 839.782C785.429 840.221 786.975 841.1 788.034 842.761H788.035C789.269 844.759 789.139 846.985 788.964 848.515C788.2 854.605 784.91 864.491 781.373 873.89C777.849 883.251 774.132 892 772.565 895.792C771.01 899.52 769.57 903.137 767.953 905.874C766.301 908.668 764.686 910.153 762.942 910.254H762.94C761.801 910.323 760.447 909.89 758.896 908.553C757.47 907.186 756.301 905.285 755.284 903.155C754.264 901.019 753.432 898.733 752.645 896.627C751.081 892.221 749.385 887.862 747.601 883.551C746.834 881.361 745.92 879.146 745.02 876.941C744.113 874.72 743.217 872.503 742.47 870.272C740.975 865.809 740.107 861.386 740.91 856.96C741.489 853.855 743.367 852.305 745.393 852.055C747.466 851.799 749.995 852.866 751.861 855.644L751.866 855.652L751.872 855.66C753.592 858.118 754.477 861.295 755.022 864.759C755.293 866.483 755.477 868.253 755.643 870.015C755.808 871.766 755.958 873.523 756.161 875.176L756.162 875.179C756.46 877.559 757.113 880.347 757.928 882.56C758.334 883.66 758.798 884.668 759.307 885.42C759.561 885.795 759.852 886.146 760.186 886.411C760.519 886.676 760.959 886.904 761.483 886.904C762.019 886.904 762.476 886.665 762.831 886.393C763.19 886.116 763.527 885.742 763.841 885.321C764.472 884.478 765.123 883.298 765.785 881.895C767.113 879.079 768.564 875.184 770.029 870.819C772.961 862.081 775.992 851.328 778.245 843.261L778.244 843.26C778.425 842.627 778.846 841.228 780.041 840.386L780.042 840.387Z" fill="var(--fill-0, white)" stroke="var(--stroke-0, #EB3604)" stroke-width="2"/>
<path id="Vector_18" d="M626.575 846.435C630.134 845.527 637.232 844.637 643.69 845.14C646.92 845.391 649.913 845.985 652.204 847.048C654.443 848.086 655.895 849.513 656.387 851.409C656.359 852.714 655.18 854.161 652.183 854.949L652.153 854.956L652.124 854.966C650.752 855.419 648.944 855.595 646.848 855.673C645.809 855.711 644.726 855.725 643.612 855.741C642.502 855.758 641.365 855.778 640.241 855.828C638.003 855.929 635.751 856.156 633.779 856.761C631.8 857.368 630.024 858.383 628.849 860.112L628.777 860.219L628.734 860.34C627.99 862.434 628.743 864.315 630.097 865.88C631.428 867.419 633.442 868.787 635.584 870.009C637.739 871.238 640.125 872.374 642.239 873.41C644.391 874.464 646.22 875.396 647.385 876.246L647.415 876.269L647.447 876.288C649.052 877.282 650.571 878.407 651.958 879.616L651.964 879.62L651.969 879.625C656.952 883.844 658.644 888.91 657.633 893.243C656.621 897.577 652.833 901.49 646.201 903.243L646.191 903.245L646.181 903.248C643.633 903.98 641.07 904.372 638.376 904.681C629.382 905.479 619.999 905.727 611.45 903.076L611.432 903.071L611.412 903.066C608.862 902.384 606.245 900.55 605.162 898.688C604.635 897.78 604.541 896.997 604.797 896.354C605.058 895.7 605.786 894.924 607.492 894.268C611.909 893.091 617.119 894.046 622.647 894.985C628.059 895.903 633.783 896.804 638.712 895.057C641.776 894.122 643.995 892.281 644.901 889.941C645.824 887.553 645.294 884.87 643.288 882.526C639.959 878.551 634.869 876.573 629.797 874.979C625.03 873.481 620.307 872.321 616.489 870.288L616.524 870.255L615.412 869.597C609.834 866.294 608.976 859.287 613.081 854.378L613.092 854.366L613.102 854.354C616.398 850.142 621.075 847.783 626.567 846.437L626.575 846.435Z" fill="var(--fill-0, white)" stroke="var(--stroke-0, #EB3604)" stroke-width="2"/>
<path id="Vector_19" d="M844.164 774.03C846.186 774.092 848.009 774.94 849.573 776.37C852.737 779.26 854.743 784.456 854.853 789.637L854.853 789.651L854.854 789.664C855.831 809.553 850.077 820.105 844.528 828.758C838.962 837.44 833.318 844.538 835.33 857.16L835.33 857.161C835.794 860.148 836.597 863.362 837.675 866.279C838.742 869.168 840.105 871.836 841.73 873.693C842.878 875.194 844.703 876.432 846.508 876.606C847.448 876.696 848.421 876.496 849.235 875.841C850.034 875.197 850.567 874.206 850.833 872.923C851.321 871.255 851.028 869.223 850.555 867.243C850.079 865.252 849.317 862.944 848.779 860.956C848.215 858.869 847.856 857.008 847.999 855.517C848.069 854.788 848.257 854.19 848.566 853.708C848.863 853.245 849.305 852.84 849.974 852.526C851.935 851.867 853.992 852.429 855.861 853.758C857.628 855.015 859.114 856.89 859.987 858.745L860.153 859.116C862.309 864.182 862.342 870.613 860.748 876.042C859.189 881.354 856.191 885.368 852.495 886.452L852.141 886.546C850.056 887.033 847.952 886.53 846.042 885.646C844.135 884.762 842.518 883.543 841.433 882.714L841.193 882.531L841.149 882.528C836.709 879.131 831.842 873.106 828.502 857.632L828.178 856.077C825.656 843.449 826.263 832.84 827.615 811.736C828.37 800.33 829.25 792.646 830.72 787.237C832.179 781.873 834.195 778.835 837.186 776.631L837.19 776.628C839.795 774.692 842.139 773.968 844.164 774.03ZM844.684 783.69C844.063 783.442 843.43 783.484 842.856 783.751C842.311 784.005 841.852 784.444 841.465 784.939C840.693 785.929 840.006 787.411 839.397 789.144C838.169 792.637 837.142 797.491 836.448 802.444C835.754 807.402 835.385 812.521 835.495 816.556C835.55 818.568 835.724 820.355 836.055 821.732C836.22 822.419 836.434 823.047 836.717 823.56C836.995 824.064 837.392 824.552 837.966 824.809L837.973 824.812C838.524 825.054 839.092 825.091 839.637 824.938C840.16 824.791 840.605 824.485 840.972 824.136C841.695 823.45 842.29 822.432 842.773 821.403C843.75 819.325 844.461 816.778 844.827 815.538L844.832 815.52L844.836 815.503C845.725 812.032 846.942 805.579 847.399 799.351C847.628 796.237 847.67 793.143 847.375 790.491C847.099 788.011 846.511 785.747 845.357 784.249L845.375 783.973L845 783.818L844.903 783.704L844.684 783.69Z" fill="var(--fill-0, white)" stroke="var(--stroke-0, #EB3604)" stroke-width="2"/>
<path id="Vector_20" d="M812.457 859.756C813.616 859.654 814.639 859.946 815.549 860.734C816.645 862.427 816.467 864.489 815.353 866.909C814.221 869.371 812.225 871.96 810.152 874.426C807.497 877.438 804.476 880.483 801.906 883.656C799.31 886.862 797.047 890.342 795.786 894.427C794.821 897.07 794.829 900.215 796.041 902.455C796.659 903.599 797.611 904.533 798.921 904.978C800.225 905.421 801.756 905.336 803.463 904.688L803.502 904.672C807.66 902.889 810.32 899.151 812.523 895.386C813.078 894.437 813.612 893.474 814.134 892.529C814.657 891.582 815.169 890.654 815.689 889.761C816.734 887.969 817.785 886.363 818.97 885.089L818.99 885.068L819.009 885.044C820.62 883.088 822.618 882.093 824.318 882.178C825.916 882.258 827.58 883.316 828.579 886.234V886.235C829.459 888.888 829.84 891.79 830.257 894.796C830.666 897.748 831.11 900.801 832.15 903.58C832.578 905.052 833.415 906.925 834.216 908.803C835.043 910.744 835.854 912.74 836.301 914.564C836.756 916.422 836.774 917.88 836.273 918.872C835.824 919.761 834.807 920.547 832.445 920.717C830.952 920.71 829.248 920.197 827.337 919.49C825.709 918.889 823.915 918.14 822.155 917.595L821.403 917.374C816.91 916.027 812.718 916.275 808.093 917.179C803.791 918 799.171 919.134 795.124 918.378L795.117 918.377L794.556 918.268C788.841 917.059 785.51 913.456 784.044 908.862C782.512 904.063 783.013 898.134 785.158 892.737L785.173 892.701L785.184 892.664C785.749 890.84 787.428 887.421 789.825 883.395C792.208 879.393 795.254 874.869 798.502 870.846C801.763 866.807 805.175 863.341 808.278 861.391C809.829 860.416 811.234 859.864 812.457 859.756Z" fill="var(--fill-0, white)" stroke="var(--stroke-0, #EB3604)" stroke-width="2"/>
<g id="Group_4">
<path id="Vector_21" d="M719.334 914.838C720.482 911.828 724.017 910.371 726.756 911.998L726.862 912.069L727.542 912.521L727.557 912.505C731.091 915.343 731.933 920.141 731.86 925.737C731.821 928.674 731.536 931.705 731.321 934.663C731.109 937.567 730.965 940.408 731.236 942.866C731.228 944.639 731.358 946.423 731.495 948.164C731.636 949.94 731.783 951.665 731.816 953.357C731.881 956.726 731.484 959.821 729.751 962.575C728.097 964.958 724.535 965.52 722.383 963.826C719.155 961.088 718.956 956.481 719.529 950.95C719.669 949.593 719.852 948.213 720.033 946.819C720.213 945.43 720.391 944.029 720.521 942.656C720.776 939.946 720.848 937.259 720.326 934.871C720.142 933.171 719.842 931.397 719.535 929.632C719.225 927.839 718.909 926.053 718.69 924.297C718.248 920.764 718.223 917.526 719.324 914.865L719.329 914.852L719.334 914.838Z" fill="var(--fill-0, white)" stroke="var(--stroke-0, #EB3604)" stroke-width="2"/>
<path id="Vector_22" d="M722.899 884.228C724.483 883.917 726.248 884.234 728.071 885.581L728.091 885.596L728.112 885.609L728.199 885.667C730.449 887.515 731.758 890.647 731.883 893.903C732.009 897.173 730.935 900.37 728.676 902.345C726.623 904.12 723.955 904.317 721.522 903.377C719.071 902.431 716.979 900.368 716.186 897.82L716.174 897.782L716.159 897.746L716.038 897.423C714.866 894.053 716.036 889.791 718.5 886.969C719.756 885.531 721.286 884.543 722.899 884.228Z" fill="var(--fill-0, white)" stroke="var(--stroke-0, #EB3604)" stroke-width="2"/>
</g>
<path id="Vector_23" d="M531.577 787.549C537.663 782.714 545.445 781.782 552.738 783.682C560.041 785.585 566.755 790.307 570.626 796.627L570.631 796.636C573.024 800.451 574.03 804.434 573.407 807.033L573.398 807.071L573.392 807.109C573.191 808.368 572.43 809.534 571.44 810.228C570.464 810.912 569.357 811.088 568.348 810.593L568.334 810.586L568.321 810.58L568.126 810.488C566.14 809.501 564.878 807.497 563.304 804.491L563.303 804.488L562.896 803.689C562.496 802.876 562.112 802.023 561.721 801.143C561.205 799.978 560.674 798.761 560.098 797.578C558.948 795.218 557.56 792.881 555.531 791.124L555.517 791.113L555.126 790.796C551.061 787.614 546.342 787.144 542.007 788.532C537.564 789.954 533.531 793.318 530.901 797.678H530.902C528.914 800.797 526.305 806.851 524.919 812.879C524.224 815.905 523.825 818.978 523.988 821.705C524.15 824.417 524.879 826.923 526.584 828.648L526.61 828.674L526.637 828.699C529.062 830.812 532.3 831.256 535.399 831.329C536.954 831.366 538.566 831.308 540.053 831.289C541.567 831.271 542.979 831.292 544.25 831.47L544.258 831.471C545.673 831.656 547.197 831.833 548.346 832.292C548.908 832.517 549.286 832.774 549.507 833.05C549.692 833.281 549.809 833.575 549.78 834.023C549.635 834.46 549.322 834.894 548.847 835.326C548.345 835.783 547.725 836.186 547.097 836.553L547.092 836.556C545.167 837.694 542.501 838.578 539.611 839.61C536.789 840.617 533.786 841.758 531.45 843.404L531.44 843.409L531.431 843.416C527.041 846.658 525.395 850.955 525.22 855.767C525.048 860.511 526.304 865.817 527.722 871.197C529.155 876.631 530.761 882.165 531.421 887.56C532.08 892.938 531.779 898.058 529.48 902.651L529.466 902.678L529.455 902.705C528.001 906.112 525.447 909.354 522.494 911.136L522.482 911.143L522.471 911.15C520.796 912.221 518.958 912.663 517.653 912.382C517.027 912.247 516.544 911.954 516.209 911.498C515.868 911.036 515.611 910.314 515.62 909.205C515.706 906.913 516.524 904.515 517.568 902.016C518.584 899.585 519.85 896.987 520.648 894.545C522.525 889.372 522.696 883.994 522.204 878.681C521.775 874.058 520.83 869.383 520.04 864.936L519.712 863.044C518.779 856.954 516.92 852.186 513.698 848.519C510.626 845.022 506.394 842.618 500.786 840.966L500.8 840.923L499.854 840.605C496.365 839.431 493.263 838.426 490.915 836.132C489.246 834.425 489.062 833.04 489.439 832.175C489.837 831.264 491.09 830.354 493.535 830.143C495.888 829.994 498.172 830.194 500.406 830.394C502.607 830.591 504.802 830.794 506.826 830.591C508.883 830.385 510.83 829.754 512.525 828.248C514.204 826.756 515.544 824.484 516.558 821.166L516.562 821.155C517.427 818.188 518.187 815.045 518.988 811.929C519.792 808.799 520.641 805.677 521.694 802.685C523.802 796.696 526.697 791.323 531.566 787.557L531.577 787.549Z" fill="var(--fill-0, white)" stroke="var(--stroke-0, #EB3604)" stroke-width="2"/>
<path id="Vector_24" d="M688.86 816.882C690.541 816.866 692.684 818.176 693.902 821.365V821.366C695.303 825.016 695.906 828.933 696.238 832.974C696.403 834.994 696.5 837.03 696.598 839.078C696.695 841.114 696.794 843.162 696.962 845.18V845.181C697.152 847.846 697.361 850.437 697.772 852.766C698.182 855.09 698.806 857.232 699.868 858.967C700.948 860.731 702.473 862.063 704.618 862.742C706.709 863.403 709.304 863.417 712.519 862.742H713.987L713.88 862.423C715.854 862.129 717.849 861.829 719.842 861.734C722.217 861.621 724.501 861.808 726.594 862.623V862.624C728.088 863.228 729.167 864.136 729.746 865.11C730.306 866.051 730.415 867.066 729.993 868.065C729.309 869.333 728.179 870.17 726.761 870.735C725.331 871.304 723.667 871.57 722.018 871.724C718.642 871.723 715.455 871.628 712.625 871.746C709.771 871.864 707.148 872.201 704.857 873.121C702.535 874.052 700.587 875.568 699.077 877.972C697.583 880.352 696.545 883.559 695.943 887.839L695.94 887.862L695.938 887.883C695.176 895.874 694.997 903.643 694.73 911.713C694.481 916.08 694.74 920.579 694.845 924.946C694.951 929.347 694.903 933.657 694.077 937.812L694.075 937.824L694.073 937.834C693.153 943.11 689.803 945.483 687.03 945.456C685.636 945.442 684.297 944.84 683.307 943.599C682.372 942.428 681.702 940.626 681.683 938.103L681.688 937.588C681.84 934.913 682.482 932.276 683.266 929.587C684.038 926.937 684.971 924.17 685.625 921.414C687.13 915.872 687.4 910.063 687.799 904.414L687.801 904.398V904.382C687.878 902.383 688.044 900.331 688.207 898.231C688.37 896.139 688.529 894.004 688.588 891.875C688.707 887.621 688.429 883.315 686.937 879.272L686.933 879.26L686.928 879.248L686.727 878.77C685.692 876.425 684.201 874.834 682.386 873.796C680.475 872.704 678.275 872.264 676.025 872.112C673.779 871.96 671.393 872.09 669.107 872.197C666.791 872.305 664.572 872.388 662.538 872.175L662.503 872.172L662.468 872.17L662.117 872.155C658.539 871.939 656.171 870.302 655.541 868.73C655.24 867.978 655.296 867.175 655.879 866.361C656.493 865.505 657.734 864.584 659.901 863.843C662.275 863.079 665.331 862.964 668.575 862.93C671.749 862.897 675.119 862.945 677.845 862.412L677.844 862.411C681.867 861.735 684.629 859.664 686.312 856.756C687.968 853.894 688.537 850.298 688.382 846.578C688.382 842.269 687.348 837.812 686.453 833.548C685.604 829.497 684.876 825.608 685.105 821.928L685.164 821.195C685.572 818.12 687.271 816.898 688.86 816.882Z" fill="var(--fill-0, white)" stroke="var(--stroke-0, #EB3604)" stroke-width="2"/>
<path id="Vector_25" d="M655.961 719.827C657.192 718.567 658.808 717.957 660.379 718.26L660.394 718.263L660.41 718.265C662.18 718.549 663.936 719.762 665.749 721.381C666.643 722.18 667.51 723.038 668.381 723.886C669.242 724.722 670.109 725.55 670.964 726.238C672.831 727.834 674.766 728.795 676.827 729.105C678.894 729.417 680.997 729.059 683.174 728.163L683.177 728.162C689.503 725.536 697.822 723.83 702.247 723.657H702.257C703.938 723.574 709.591 723.658 715.102 727.191L715.109 727.195C716.802 728.26 719.63 730.056 721.414 733.32C723.517 737.183 723.176 741.145 722.55 745.734C721.329 754.543 719.732 761.536 718.466 767.769C717.283 773.596 716.386 778.774 716.41 784.062L716.427 785.122C716.472 786.757 716.54 788.112 716.596 789.061C716.624 789.535 716.649 789.907 716.668 790.162L716.696 790.53C716.697 790.539 716.697 790.545 716.698 790.55V790.558L716.699 790.562C717.062 794.724 717.666 797.226 718.107 799.213C718.541 801.168 718.801 802.56 718.575 804.638C718.394 806.254 718.191 808.054 717.653 809.703C717.119 811.341 716.288 812.726 714.923 813.602L714.921 813.603C713.365 814.605 711.233 814.874 709.07 814.482C706.91 814.091 704.858 813.064 703.509 811.66H703.508C702.181 810.262 701.648 808.072 701.862 804.316C702.075 800.573 703.007 795.555 704.306 788.749V788.747C704.306 788.746 704.307 788.745 704.307 788.743C704.308 788.741 704.308 788.736 704.309 788.731C704.311 788.721 704.314 788.706 704.318 788.687C704.325 788.647 704.336 788.587 704.35 788.51C704.379 788.354 704.421 788.125 704.474 787.826C704.58 787.228 704.732 786.352 704.915 785.237C705.281 783.009 705.772 779.827 706.273 776.007C707.274 768.371 708.317 758.168 708.474 747.933V747.917C708.474 746.433 708.478 744.177 707.978 741.858C707.478 739.536 706.455 737.063 704.341 735.204L704.335 735.198C701.729 732.945 698.659 732.608 697.53 732.514H697.531C692.891 732.056 688.847 734.106 685.934 736.308C683.017 738.512 681.109 740.96 680.686 741.555C678.472 744.653 676.28 748.961 675.328 758.578C674.266 769.136 675.51 777.428 676.301 783.521C676.7 786.596 676.971 789.021 676.82 790.931C676.672 792.802 676.134 794.014 675.049 794.835C674.165 795.494 672.904 795.92 671.488 796.085C670.078 796.249 668.595 796.145 667.334 795.82L666.782 795.679L666.768 795.691C666.448 795.574 666.004 795.394 665.496 795.136C664.425 794.592 663.098 793.723 662.005 792.413V792.412L661.803 792.161C659.79 789.549 659.893 786.367 660.734 781.408C661.589 776.368 663.151 769.733 663.309 760.875V760.874C663.442 752.598 663.591 747.903 661.322 742.042L661.321 742.037L661.091 741.472C659.91 738.652 658.246 735.971 656.894 733.424C655.514 730.822 654.402 728.275 654.115 725.509L654.069 724.952C653.954 722.934 654.734 721.084 655.961 719.827Z" fill="var(--fill-0, #EB3604)" stroke="var(--stroke-0, white)" stroke-width="2"/>
</g>
</g>
<defs>
<filter id="filter0_f_315_363" x="-1.52588e-05" y="-1.52588e-05" width="1369.6" height="1369.6" filterUnits="userSpaceOnUse" color-interpolation-filters="sRGB">
<feFlood flood-opacity="0" result="BackgroundImageFix"/>
<feBlend mode="normal" in="SourceGraphic" in2="BackgroundImageFix" result="shape"/>
<feGaussianBlur stdDeviation="91.4" result="effect1_foregroundBlur_315_363"/>
</filter>
<radialGradient id="paint0_radial_315_363" cx="0" cy="0" r="1" gradientUnits="userSpaceOnUse" gradientTransform="translate(684.8 684.8) rotate(90) scale(926)">
<stop offset="0.134615" stop-color="#FF4000"/>
<stop offset="0.365385" stop-color="#FFA080"/>
<stop offset="0.706731" stop-color="white"/>
</radialGradient>
<clipPath id="clip0_315_363">
<rect width="401" height="554" fill="white" transform="translate(477.8 411.8)"/>
</clipPath>
</defs>
</svg>
