<svg preserveAspectRatio="none" width="100%" height="100%" overflow="visible" style="display: block;" viewBox="0 0 971.22 978.219" fill="none" xmlns="http://www.w3.org/2000/svg">
<g id="Group 16">
<circle id="Ellipse 10" cx="488" cy="485.999" r="381.5" fill="url(#paint0_radial_315_348)" stroke="var(--stroke-0, #EB3604)"/>
<g id="Frame 22">
<g id="Ellipse 4">
<mask id="path-2-inside-1_315_348" fill="white">
<path d="M833 493.499C842.389 493.499 850.043 501.114 849.589 510.492C846.888 566.29 830.921 620.729 802.908 669.249C774.895 717.768 735.733 758.816 688.761 789.054C680.867 794.136 670.444 791.315 665.75 783.184L513.222 518.999C506.679 507.665 514.858 493.499 527.945 493.499H833Z"/>
</mask>
<path d="M833 493.499C842.389 493.499 850.043 501.114 849.589 510.492C846.888 566.29 830.921 620.729 802.908 669.249C774.895 717.768 735.733 758.816 688.761 789.054C680.867 794.136 670.444 791.315 665.75 783.184L513.222 518.999C506.679 507.665 514.858 493.499 527.945 493.499H833Z" fill="url(#paint1_linear_315_348)" fill-opacity="0.9" stroke="var(--stroke-0, white)" stroke-width="2" mask="url(#path-2-inside-1_315_348)"/>
</g>
</g>
<g id="Frame 23">
<g id="Ellipse 5">
<mask id="path-3-inside-2_315_348" fill="white">
<path d="M658.025 787.581C662.72 795.712 659.951 806.148 651.603 810.445C601.88 836.034 546.694 849.44 490.61 849.44C434.526 849.44 379.339 836.034 329.617 810.445C321.268 806.148 318.5 795.712 323.194 787.581L475.887 523.109C482.431 511.776 498.789 511.776 505.332 523.109L658.025 787.581Z"/>
</mask>
<path d="M658.025 787.581C662.72 795.712 659.951 806.148 651.603 810.445C601.88 836.034 546.694 849.44 490.61 849.44C434.526 849.44 379.339 836.034 329.617 810.445C321.268 806.148 318.5 795.712 323.194 787.581L475.887 523.109C482.431 511.776 498.789 511.776 505.332 523.109L658.025 787.581Z" fill="url(#paint2_linear_315_348)" fill-opacity="0.9" stroke="var(--stroke-0, white)" stroke-width="2" mask="url(#path-3-inside-2_315_348)"/>
</g>
</g>
<g id="Frame 24">
<g id="Ellipse 6">
<mask id="path-4-inside-3_315_348" fill="white">
<path d="M313.195 783.581C308.5 791.712 298.078 794.532 290.183 789.451C243.161 759.184 203.957 718.094 175.916 669.524C147.874 620.954 131.89 566.458 129.19 510.602C128.736 501.224 136.39 493.609 145.779 493.609L451.165 493.609C464.252 493.609 472.431 507.775 465.888 519.109L313.195 783.581Z"/>
</mask>
<path d="M313.195 783.581C308.5 791.712 298.078 794.532 290.183 789.451C243.161 759.184 203.957 718.094 175.916 669.524C147.874 620.954 131.89 566.458 129.19 510.602C128.736 501.224 136.39 493.609 145.779 493.609L451.165 493.609C464.252 493.609 472.431 507.775 465.888 519.109L313.195 783.581Z" fill="url(#paint3_linear_315_348)" fill-opacity="0.9" stroke="var(--stroke-0, white)" stroke-width="2" mask="url(#path-4-inside-3_315_348)"/>
</g>
</g>
<g id="Frame 21">
<g id="Ellipse 7">
<mask id="path-5-inside-4_315_348" fill="white">
<path d="M833 484.719C842.389 484.719 850.043 477.103 849.589 467.725C846.888 411.928 830.921 357.489 802.908 308.969C774.895 260.449 735.733 219.401 688.761 189.164C680.867 184.082 670.444 186.902 665.75 195.033L513.222 459.219C506.679 470.552 514.858 484.719 527.945 484.719H833Z"/>
</mask>
<path d="M833 484.719C842.389 484.719 850.043 477.103 849.589 467.725C846.888 411.928 830.921 357.489 802.908 308.969C774.895 260.449 735.733 219.401 688.761 189.164C680.867 184.082 670.444 186.902 665.75 195.033L513.222 459.219C506.679 470.552 514.858 484.719 527.945 484.719H833Z" fill="url(#paint4_linear_315_348)" fill-opacity="0.9" stroke="var(--stroke-0, white)" stroke-width="2" mask="url(#path-5-inside-4_315_348)"/>
</g>
</g>
<g id="Frame 19">
<g id="Ellipse 8">
<mask id="path-6-inside-5_315_348" fill="white">
<path d="M657.025 190.638C661.72 182.507 658.951 172.071 650.603 167.774C600.88 142.185 545.694 128.779 489.61 128.779C433.526 128.779 378.339 142.185 328.617 167.774C320.268 172.071 317.5 182.507 322.194 190.638L474.887 455.11C481.431 466.444 497.789 466.444 504.332 455.11L657.025 190.638Z"/>
</mask>
<path d="M657.025 190.638C661.72 182.507 658.951 172.071 650.603 167.774C600.88 142.185 545.694 128.779 489.61 128.779C433.526 128.779 378.339 142.185 328.617 167.774C320.268 172.071 317.5 182.507 322.194 190.638L474.887 455.11C481.431 466.444 497.789 466.444 504.332 455.11L657.025 190.638Z" fill="url(#paint5_linear_315_348)" fill-opacity="0.9" stroke="var(--stroke-0, white)" stroke-width="2" mask="url(#path-6-inside-5_315_348)"/>
</g>
</g>
<g id="Frame 20">
<g id="Ellipse 9">
<mask id="path-7-inside-6_315_348" fill="white">
<path d="M313.195 194.636C308.5 186.506 298.078 183.685 290.183 188.767C243.161 219.033 203.957 260.123 175.916 308.693C147.874 357.263 131.89 411.759 129.19 467.615C128.736 476.993 136.39 484.609 145.779 484.609L451.165 484.609C464.252 484.609 472.431 470.442 465.888 459.109L313.195 194.636Z"/>
</mask>
<path d="M313.195 194.636C308.5 186.506 298.078 183.685 290.183 188.767C243.161 219.033 203.957 260.123 175.916 308.693C147.874 357.263 131.89 411.759 129.19 467.615C128.736 476.993 136.39 484.609 145.779 484.609L451.165 484.609C464.252 484.609 472.431 470.442 465.888 459.109L313.195 194.636Z" fill="url(#paint6_linear_315_348)" fill-opacity="0.9" stroke="var(--stroke-0, white)" stroke-width="2" mask="url(#path-7-inside-6_315_348)"/>
</g>
</g>
</g>
<defs>
<radialGradient id="paint0_radial_315_348" cx="0" cy="0" r="1" gradientUnits="userSpaceOnUse" gradientTransform="translate(488 485.999) rotate(90) scale(404.5)">
<stop stop-color="#FF4000"/>
<stop offset="0.85" stop-color="#FFB700"/>
<stop offset="1" stop-color="white"/>
</radialGradient>
<linearGradient id="paint1_linear_315_348" x1="147" y1="493.499" x2="850" y2="493.499" gradientUnits="userSpaceOnUse">
<stop offset="0.427885" stop-color="#FFB700"/>
<stop offset="0.793269" stop-color="#FFECDB"/>
<stop offset="1" stop-color="white"/>
</linearGradient>
<linearGradient id="paint2_linear_315_348" x1="314.694" y1="192.914" x2="666.525" y2="802.303" gradientUnits="userSpaceOnUse">
<stop offset="0.427885" stop-color="#FFB700"/>
<stop offset="0.793269" stop-color="#FFECDB"/>
<stop offset="1" stop-color="white"/>
</linearGradient>
<linearGradient id="paint3_linear_315_348" x1="656.526" y1="188.914" x2="304.695" y2="798.303" gradientUnits="userSpaceOnUse">
<stop offset="0.427885" stop-color="#FFB700"/>
<stop offset="0.793269" stop-color="#FFECDB"/>
<stop offset="1" stop-color="white"/>
</linearGradient>
<linearGradient id="paint4_linear_315_348" x1="147" y1="484.719" x2="850" y2="484.719" gradientUnits="userSpaceOnUse">
<stop offset="0.427885" stop-color="#FFB700"/>
<stop offset="0.793269" stop-color="#FFECDB"/>
<stop offset="1" stop-color="white"/>
</linearGradient>
<linearGradient id="paint5_linear_315_348" x1="313.694" y1="785.305" x2="665.525" y2="175.916" gradientUnits="userSpaceOnUse">
<stop offset="0.427885" stop-color="#FFB700"/>
<stop offset="0.793269" stop-color="#FFECDB"/>
<stop offset="1" stop-color="white"/>
</linearGradient>
<linearGradient id="paint6_linear_315_348" x1="656.526" y1="789.303" x2="304.695" y2="179.914" gradientUnits="userSpaceOnUse">
<stop offset="0.427885" stop-color="#FFB700"/>
<stop offset="0.793269" stop-color="#FFECDB"/>
<stop offset="1" stop-color="white"/>
</linearGradient>
</defs>
</svg>
