<svg preserveAspectRatio="none" width="100%" height="100%" overflow="visible" style="display: block;" viewBox="0 0 48.6674 64" fill="none" xmlns="http://www.w3.org/2000/svg">
<g id="Group 14">
<path id="Vector" d="M13.732 0C19.3957 1.00808 23.4895 5.31793 23.4895 10.2621C23.4895 15.2062 19.3957 19.5161 13.732 20.5241V0Z" fill="var(--fill-0, black)"/>
<g id="Group">
<path id="Vector_2" d="M48.6607 4.05493C47.6009 8.55167 42.9374 11.8138 37.5785 11.8138C32.2195 11.8138 27.5494 8.55167 26.4962 4.05493H48.6674H48.6607Z" fill="var(--fill-0, black)"/>
<path id="Vector_3" d="M48.6608 12.8728C47.6009 17.3696 42.9375 20.6317 37.5785 20.6317C32.2195 20.6317 27.5494 17.3696 26.4962 12.8728H48.6674H48.6608Z" fill="var(--fill-0, black)"/>
<path id="Vector_4" d="M48.6608 21.6908C47.6009 26.1875 42.9375 29.4496 37.5785 29.4496C32.2195 29.4496 27.5494 26.1875 26.4962 21.6908H48.6674H48.6608Z" fill="var(--fill-0, black)"/>
</g>
<path id="Vector_5" d="M22.1712 21.7928C21.1113 26.2895 16.4479 29.5516 11.0889 29.5516C5.72994 29.5516 1.05988 26.2895 4.91738e-06 21.7928H22.1712Z" fill="var(--fill-0, black)"/>
<path id="Vector_6" d="M13.7253 33.5682C19.389 34.5763 23.4828 38.8861 23.4828 43.8303C23.4828 48.7744 19.389 53.0843 13.7253 54.0924V33.5682Z" fill="var(--fill-0, black)"/>
<path id="Vector_7" d="M22.1646 55.3609C21.1047 59.8577 16.4413 63.1198 11.0823 63.1198C5.72331 63.1198 1.05325 59.8577 4.91738e-06 55.3609H22.1712H22.1646Z" fill="var(--fill-0, black)"/>
<path id="Vector_8" d="M42.1094 54.9669C42.1094 54.9669 42.1094 54.9726 42.1094 54.9782C42.1094 57.0114 40.0824 58.6594 37.5851 58.6594C35.0878 58.6594 33.0608 57.0114 33.0608 54.9782C33.0608 52.9451 33.0608 54.9726 33.0608 54.9669H26.4962C26.4962 59.9563 31.4577 64 37.5785 64C43.6992 64 48.6608 59.9563 48.6608 54.9669H42.0962H42.1094Z" fill="var(--fill-0, black)"/>
</g>
</svg>
