<svg preserveAspectRatio="xMidYMid meet" width="446" height="597" viewBox="0 0 446 597" fill="none" xmlns="http://www.w3.org/2000/svg">
<g id="_&#235;&#160;&#136;&#236;&#157;&#180;&#236;&#150;&#180;_1" clip-path="url(#clip0_177_1729)">
<g id="Group">
<path id="Vector" d="M91.9367 187.599C97.3531 186.511 102.627 185.015 107.901 185.151C115.74 184.743 124.293 191.407 120.729 199.158C117.451 206.638 104.48 204.734 98.0658 203.102C94.2173 202.15 91.3665 200.11 87.3755 199.702C72.6941 199.023 68.5605 211.126 67.8478 223.093C65.5672 239.14 64.1419 255.323 63.2866 271.506C62.2889 281.433 65.1396 292.856 59.8657 301.832C52.1687 313.527 35.4918 303.736 39.0553 291.496C40.9082 284.561 45.4694 278.305 47.75 271.642C51.0284 261.306 51.3135 250.563 52.8814 239.82C54.0217 230.572 55.8747 220.917 55.162 211.534C54.8769 206.91 53.7366 203.374 55.4471 200.246C57.4426 197.255 46.0396 198.615 44.3291 198.479C35.6344 198.886 26.0843 202.014 17.8172 201.334C-2.28063 198.751 5.27386 180.664 23.6612 183.384C30.503 183.928 37.4873 186.375 44.3291 186.239C62.1463 185.695 58.4404 164.617 57.4426 153.058C57.015 142.858 50.7433 132.523 54.8769 122.732C58.1553 116.612 67.7053 118.788 70.271 124.363C73.4068 129.259 72.8367 139.866 72.8367 149.386C73.1217 159.449 72.124 174 73.5493 182.84C75.2598 190.999 85.38 189.231 91.9367 187.871H92.0792L91.9367 187.599Z" fill="var(--fill-0, #EB3604)" stroke="var(--stroke-0, white)" stroke-width="3" stroke-miterlimit="10"/>
<path id="Vector_2" d="M149.807 282.521C162.065 282.793 177.174 292.856 168.479 305.231C164.773 309.991 157.504 311.487 151.945 309.175C146.671 307.271 143.535 302.376 138.119 301.016C130.564 299.52 126.288 307.815 124.293 313.799C122.582 319.374 122.155 325.358 121.585 331.07C120.872 338.957 120.017 346.301 118.876 353.644C117.593 361.668 116.026 376.899 105.193 377.171C92.7919 374.587 101.629 355.14 102.627 346.981C103.91 340.045 104.765 332.973 104.052 326.038C103.34 315.975 97.068 307.679 93.9322 298.432C92.2218 293.808 93.5046 287.689 99.2061 286.601C103.767 285.649 109.041 288.504 113.46 289.728C122.725 292.72 129.709 286.193 138.404 283.609C141.967 282.521 145.816 282.249 149.664 282.521H149.949H149.807Z" fill="var(--fill-0, #EB3604)" stroke="var(--stroke-0, white)" stroke-width="3" stroke-miterlimit="10"/>
<path id="Vector_3" d="M276.808 343.853C259.988 333.925 258.421 310.671 269.824 295.984C277.236 285.921 289.209 279.121 301.182 275.177C313.44 271.37 324.13 268.378 324.701 253.963C324.986 250.019 323.56 242.676 319.569 243.764C317.289 244.035 313.012 247.027 309.592 249.067C300.469 255.051 286.786 256.411 278.518 248.387C268.113 238.324 270.251 217.789 274.385 205.006C278.376 194.263 285.788 183.792 293.485 174.952C297.048 170.736 301.752 166.793 307.311 165.433C313.012 163.665 320.282 166.793 319.712 172.776C317.716 182.024 306.741 185.831 300.897 192.495C294.34 199.43 290.919 208.406 289.351 217.653C285.93 234.924 293.2 246.619 309.164 231.252C315.578 224.997 318.999 216.701 320.709 208.134C321.992 201.878 322.848 195.215 325.413 189.911C330.26 179.304 342.09 179.984 342.518 191.815C342.66 198.479 340.38 205.006 339.239 211.67C337.671 220.237 336.389 228.94 335.961 237.916C335.248 249.611 336.246 263.754 348.362 269.466C356.914 273.953 368.032 275.177 375.444 281.433C379.292 284.833 381.288 289.048 380.433 293.128C377.724 303.328 364.754 298.704 359.052 293.128C350.927 285.649 344.513 274.089 337.671 288.912C334.108 299.112 331.827 309.583 325.841 319.102C319.854 329.166 312.157 339.501 300.469 343.853C296.763 345.077 293.057 345.213 289.494 344.669C285.36 344.261 283.365 343.037 280.656 343.581C279.516 343.989 278.946 344.669 276.95 343.581L276.808 343.853ZM324.843 276.809C324.273 276.537 323.56 276.537 322.277 276.809C316.861 278.169 308.451 281.977 302.75 284.697C259.276 303.871 277.093 349.428 302.75 326.854C312.442 317.743 319.284 302.92 322.705 290.408C323.703 286.057 327.266 279.665 324.986 276.809H324.843Z" fill="var(--fill-0, #EB3604)" stroke="var(--stroke-0, white)" stroke-width="3" stroke-miterlimit="10"/>
<path id="Vector_4" d="M162.065 176.04C170.617 187.191 146.101 203.51 139.544 212.078C133.273 219.693 125.005 229.076 127.714 239.276C131.277 248.931 142.538 244.171 147.384 238.324C153.37 231.796 155.508 222.685 159.357 215.477C163.063 207.59 173.753 201.334 179.882 210.582C183.303 216.293 181.878 224.317 181.735 230.844C181.735 236.012 182.163 240.364 185.014 244.035C191.143 251.379 204.969 252.739 211.098 261.578C214.376 265.794 216.515 273.274 211.383 276.809C204.969 280.617 193.994 275.041 187.009 272.322C180.025 269.874 173.611 265.114 167.482 261.578C162.35 258.587 156.506 259.13 151.09 261.442C138.261 267.426 122.155 268.786 112.32 258.179C102.627 246.211 107.758 229.076 114.6 216.837C119.589 207.998 126.858 199.566 133.273 191.271C138.404 184.879 144.248 176.992 152.373 174.544C156.221 173.456 159.927 174 162.065 176.312V176.04Z" fill="var(--fill-0, #EB3604)" stroke="var(--stroke-0, white)" stroke-width="3" stroke-miterlimit="10"/>
<g id="Group_2">
<path id="Vector_5" d="M187.864 345.893C198.555 352.692 194.991 367.787 194.136 378.258C193.138 386.282 192.426 393.625 193.708 401.377C194.564 409.264 197.7 419.192 193.138 426.263C190.003 430.887 183.018 431.295 178.029 428.711C167.767 423.543 172.898 412.528 174.751 404.097C176.889 395.121 175.606 385.194 174.323 375.947C173.468 369.147 170.475 362.62 170.617 355.684C170.617 347.389 179.74 341.405 187.579 345.621H187.722L187.864 345.893Z" fill="var(--fill-0, #EB3604)" stroke="var(--stroke-0, white)" stroke-width="3" stroke-miterlimit="10"/>
<path id="Vector_6" d="M192.711 302.24C202.688 310.263 202.403 331.614 187.864 334.469C176.461 336.373 166.199 326.038 168.764 315.023C170.332 304.687 182.448 294.624 192.568 302.24H192.711Z" fill="var(--fill-0, #EB3604)" stroke="var(--stroke-0, white)" stroke-width="3" stroke-miterlimit="10"/>
</g>
<path id="Vector_7" d="M413.359 145.442C426.187 145.442 436.022 157.001 432.459 168.969C429.323 179.848 418.205 186.647 411.506 195.623C407.8 200.382 405.234 206.094 402.526 211.398C400.245 215.885 397.11 219.693 392.976 222.549C389.555 225.133 385.279 226.765 383.141 230.164C380.575 235.74 388.985 241.18 394.972 242.132C402.241 243.492 409.938 239.684 412.789 233.156C415.497 227.445 414.784 220.781 416.922 214.797C418.918 208.95 425.475 204.87 432.031 205.142C444.147 205.55 448.281 215.613 443.434 225.269C442.009 228.261 440.013 231.252 437.875 233.972C430.748 243.084 422.624 252.195 411.648 256.955C408.227 258.315 403.381 260.354 400.245 259.266C399.105 258.858 398.82 258.043 397.965 257.227C396.825 256.139 395.399 255.459 393.689 254.915C390.695 254.099 383.711 253.147 382.286 255.323C381.145 257.363 379.577 256.139 376.869 254.779C365.324 248.251 360.05 235.332 357.627 223.229C355.346 212.214 356.771 201.742 360.335 190.591C362.615 182.024 366.607 173.864 373.163 167.201C383.283 156.865 398.107 145.442 413.359 145.714H413.501L413.359 145.442ZM405.662 173.048C405.662 169.376 399.675 173.728 398.392 174.68C394.116 177.808 389.127 183.656 387.845 187.055C387.274 188.415 387.132 190.727 389.27 190.727C392.263 190.727 394.971 188.007 397.537 185.695C400.816 182.568 405.092 176.72 405.662 173.184V173.048Z" fill="var(--fill-0, #EB3604)" stroke="var(--stroke-0, white)" stroke-width="3" stroke-miterlimit="10"/>
<path id="Vector_8" d="M349.787 327.262C361.76 327.398 369.6 339.093 364.183 349.428C360.763 356.5 354.348 361.532 349.502 367.923C346.081 372.139 343.515 377.035 340.665 381.658C338.527 385.33 335.533 388.322 332.398 391.042C329.547 393.761 325.413 395.801 324.701 399.745C324.701 404.505 330.83 407.633 336.246 407.769C349.074 407.769 349.93 395.937 352.638 386.826C354.206 381.93 358.339 378.123 363.613 377.715C373.306 376.763 378.152 384.922 374.731 392.946C370.027 404.641 353.351 421.912 339.524 421.912C337.244 421.64 335.676 420.28 333.538 419.328C329.832 417.424 325.841 418.24 322.42 419.328C319.854 419.736 317.146 417.152 314.865 415.248C305.6 407.089 301.752 394.305 301.752 382.61C301.752 366.155 308.594 349.156 322.562 338.413C330.117 332.566 339.524 326.582 349.36 327.126H349.502L349.787 327.262ZM343.23 350.244C343.23 347.253 338.384 350.788 337.244 351.604C333.68 354.188 329.404 359.084 328.264 361.94C327.694 363.164 327.694 365.067 329.404 365.067C331.97 364.931 334.108 362.892 336.246 360.852C338.954 358.268 342.518 353.508 343.088 350.38L343.23 350.244Z" fill="var(--fill-0, #EB3604)" stroke="var(--stroke-0, white)" stroke-width="3" stroke-miterlimit="10"/>
<path id="Vector_9" d="M217.797 320.326C228.915 321.006 230.483 336.645 241.459 337.597C247.588 338.005 255.142 337.053 260.986 340.453C269.966 345.077 274.955 354.46 278.946 363.299C288.353 383.562 288.211 402.873 286.073 425.719C285.645 430.615 285.36 435.647 285.075 440.678C284.79 449.654 283.507 468.012 269.966 463.117C261.414 459.037 259.703 449.518 266.403 442.854C273.53 435.375 274.955 429.527 275.097 419.328C275.953 398.929 272.532 379.618 261.984 361.94C259.703 357.316 256.14 352.828 252.291 350.516C245.45 346.981 241.744 357.316 239.606 362.076C235.472 373.771 238.18 388.458 238.893 400.697C239.035 407.497 239.321 415.656 232.764 419.464C229.485 421.096 226.207 419.6 224.212 416.744C219.365 409.536 221.788 400.153 222.216 391.994C223.071 382.202 222.501 371.731 218.653 362.62C214.804 353.508 208.532 344.941 208.532 334.877C208.532 328.758 210.528 320.734 217.655 320.462H217.797V320.326Z" fill="var(--fill-0, #EB3604)" stroke="var(--stroke-0, white)" stroke-width="3" stroke-miterlimit="10"/>
<path id="Vector_10" d="M204.399 153.874C209.388 155.505 213.949 156.593 219.223 156.593C225.209 156.593 232.194 156.185 237.895 159.313C247.303 163.937 252.434 173.592 256.568 182.568C265.547 201.606 265.975 219.965 263.98 241.18C263.409 247.571 262.982 254.235 262.697 260.626C262.127 268.65 261.984 281.705 251.721 282.793C245.45 282.929 239.748 277.217 239.321 271.234C239.035 262.53 249.156 258.587 251.151 250.291C252.862 243.763 252.577 236.284 252.577 229.62C252.577 218.741 251.151 208.814 247.588 198.887C245.592 192.767 242.456 186.919 239.321 181.344C235.615 174.544 227.205 162.441 220.363 172.64C215.232 180.12 213.521 188.415 213.949 197.799C213.521 209.358 217.37 221.189 214.234 232.34C212.238 239.14 204.114 242.268 199.838 235.196C195.134 227.037 198.412 216.837 198.555 207.862C199.125 198.343 197.985 188.415 193.851 179.848C190.858 173.32 185.156 165.433 187.437 158.361C189.86 151.426 198.27 151.834 204.399 154.01H204.541L204.399 153.874Z" fill="var(--fill-0, #EB3604)" stroke="var(--stroke-0, white)" stroke-width="3" stroke-miterlimit="10"/>
</g>
<path id="Vector_11" d="M193.994 78.4668C199.98 78.8747 204.826 83.7704 203.829 89.618C202.973 96.0096 196.559 102.809 192.568 108.521C189.005 114.232 178.6 122.8 179.455 128.783C180.595 132.319 185.726 132.047 188.72 130.415C193.994 127.559 196.702 118.448 201.548 115.592C204.684 113.416 209.103 114.368 210.528 117.768C212.096 121.576 210.528 126.2 207.107 130.687C195.704 145.782 173.896 148.774 163.918 130.687C155.936 114.368 162.778 93.1538 178.314 83.0904C182.733 80.2346 188.435 78.0588 193.709 78.4668H193.851H193.994ZM189.432 93.4258C188.577 92.2018 186.724 93.4258 185.726 94.1057C182.876 96.1456 179.455 99.4094 179.17 102.673C179.17 104.577 181.45 103.897 182.733 103.081C185.584 101.313 189.717 96.6895 189.575 93.5618L189.432 93.4258Z" fill="var(--fill-0, white)" stroke="var(--stroke-0, #EB3604)" stroke-width="3" stroke-miterlimit="10"/>
<path id="Vector_12" d="M105.905 435.307C111.892 435.715 116.738 440.61 115.74 446.458C114.885 452.85 108.471 459.649 104.48 465.361C100.917 471.072 90.5113 479.64 91.3666 485.623C92.5069 489.159 97.6382 488.887 100.632 487.255C105.905 484.399 108.614 475.288 113.46 472.432C116.596 470.256 121.014 471.208 122.44 474.608C124.008 478.416 122.44 483.04 119.019 487.527C107.616 502.622 85.8076 505.614 75.83 487.527C67.8479 471.208 74.6897 449.994 90.2263 439.93C94.6449 437.075 100.346 434.899 105.62 435.307H105.763H105.905ZM101.487 450.402C100.632 449.178 98.7785 450.402 97.7808 451.082C94.93 453.122 91.5091 456.385 91.224 459.649C91.224 461.553 93.5046 460.873 94.7875 460.057C97.6382 458.289 101.772 453.666 101.629 450.538L101.487 450.402Z" fill="var(--fill-0, white)" stroke="var(--stroke-0, #EB3604)" stroke-width="3" stroke-miterlimit="10"/>
<g id="Group_3">
<path id="Vector_13" d="M228.203 142.654C212.809 133.543 217.94 115.456 234.617 110.833C239.035 109.473 244.167 109.201 248.3 111.105C254.43 114.096 252.719 118.312 246.447 120.352C242.171 121.984 234.902 123.208 233.334 127.559C232.194 130.415 233.762 133.951 237.182 135.991C243.169 139.527 251.721 138.575 258.136 135.991C272.389 130.143 277.663 115.728 278.661 101.313C279.516 90.298 278.661 79.0107 275.383 68.2674C273.672 60.7879 265.69 44.469 273.672 39.5734C281.797 38.0775 283.365 56.4362 284.79 62.0118C286.786 71.6672 289.921 81.1866 290.634 91.1139C291.632 105.393 288.496 121.168 279.231 132.183C267.686 146.054 244.737 151.63 228.488 142.79H228.345L228.203 142.654Z" fill="var(--fill-0, white)" stroke="var(--stroke-0, #EB3604)" stroke-width="3" stroke-miterlimit="10"/>
<path id="Vector_14" d="M275.81 2.58383C281.939 7.88747 283.365 20.6706 276.95 26.3822C267.4 33.1818 259.989 21.0786 262.269 11.0153C263.124 4.89567 268.826 -2.9918 275.525 2.44784H275.668L275.81 2.58383Z" fill="var(--fill-0, white)" stroke="var(--stroke-0, #EB3604)" stroke-width="3" stroke-miterlimit="10"/>
</g>
<g id="Group_4">
<path id="Vector_15" d="M93.5046 147.822C78.1106 138.711 83.2419 120.624 99.9188 116C104.337 114.64 109.469 114.368 113.602 116.272C119.732 119.264 118.021 123.48 111.749 125.52C107.473 127.151 100.204 128.375 98.636 132.727C97.4957 135.583 99.0636 139.119 102.485 141.159C108.471 144.694 117.023 143.742 123.438 141.159C137.691 135.311 142.965 120.896 143.963 106.481C144.818 95.4656 143.963 84.1784 140.685 73.4351C138.974 65.9556 130.992 49.6367 138.974 44.741C147.099 43.2451 148.667 61.6039 150.092 67.1795C152.088 76.8349 155.223 86.3542 155.936 96.2816C156.934 110.561 153.798 126.336 144.533 137.351C132.988 151.222 110.039 156.798 93.7897 147.958H93.6472L93.5046 147.822Z" fill="var(--fill-0, white)" stroke="var(--stroke-0, #EB3604)" stroke-width="3" stroke-miterlimit="10"/>
<path id="Vector_16" d="M141.112 7.61549C147.241 12.9191 148.667 25.7023 142.252 31.4139C132.702 38.2134 125.291 26.1103 127.571 16.0469C128.426 9.92734 134.128 2.03986 140.827 7.4795H140.97L141.112 7.61549Z" fill="var(--fill-0, white)" stroke="var(--stroke-0, #EB3604)" stroke-width="3" stroke-miterlimit="10"/>
</g>
<path id="Vector_17" d="M349.645 69.0834C353.351 72.0752 354.348 77.3788 355.061 81.7305C356.629 93.1537 351.925 105.121 356.201 116.272C358.339 122.8 365.751 134.495 355.916 135.175C350.5 134.631 345.369 130.279 339.952 129.871C332.968 129.055 325.128 133.407 317.859 132.591C299.899 130.551 296.621 111.513 296.051 96.1455C295.908 89.346 296.051 81.7305 299.044 75.4749C302.037 68.5394 311.445 66.0916 313.298 74.659C314.723 82.0025 309.021 91.1139 307.881 98.7294C306.741 105.257 307.739 112.6 312.015 117.768C320.424 127.695 335.961 121.984 339.382 110.425C341.948 102.809 340.95 94.5137 340.95 86.6262C340.665 81.1866 342.09 65.0036 349.502 68.8114L349.645 69.0834Z" fill="var(--fill-0, white)" stroke="var(--stroke-0, #EB3604)" stroke-width="3" stroke-miterlimit="10"/>
<path id="Vector_18" d="M328.407 464.001C332.968 464.817 334.821 469.849 334.251 473.928C333.253 482.496 326.268 492.151 323.133 500.99C320.567 507.518 318.999 514.318 317.146 521.117C315.436 527.917 309.734 541.108 301.324 534.172C298.046 531.18 296.193 526.149 294.483 521.933C292.915 517.581 291.062 513.23 289.209 509.014C286.073 500.446 280.514 491.335 282.224 482.088C283.507 475.152 291.204 474.336 295.48 480.456C299.329 485.759 299.329 493.783 300.042 500.31C302.75 521.933 311.587 506.158 314.153 495.279C317.431 486.303 313.868 463.185 328.121 464.273H328.264L328.407 464.001Z" fill="var(--fill-0, white)" stroke="var(--stroke-0, #EB3604)" stroke-width="3" stroke-miterlimit="10"/>
<path id="Vector_19" d="M132.845 493.919C126.431 490.247 125.576 482.632 130.137 477.328C133.7 472.976 138.832 470.529 144.676 469.033C152.23 467.129 174.608 465.497 176.889 474.744C176.889 476.784 175.036 478.552 171.758 479.368C165.486 481.408 152.373 478.144 148.097 484.128C145.673 490.655 161.923 495.143 167.054 498.815C168.764 499.767 170.332 500.991 171.9 502.214C182.733 510.918 179.882 523.837 165.486 527.373C162.778 528.053 160.07 528.597 157.219 528.869C147.811 529.685 137.976 529.957 128.854 527.237C123.152 525.741 117.023 519.485 124.72 516.629C134.413 514.182 147.384 520.709 157.076 517.445C163.063 515.678 165.201 510.782 161.352 506.566C154.938 499.223 141.255 498.951 132.845 494.055H132.702L132.845 493.919Z" fill="var(--fill-0, white)" stroke="var(--stroke-0, #EB3604)" stroke-width="3" stroke-miterlimit="10"/>
<path id="Vector_20" d="M404.379 523.429C392.121 518.941 389.413 504.798 386.134 494.055C383.854 486.711 378.295 480.864 377.439 474.336C376.869 466.449 382.998 458.289 382.428 449.994C382.428 437.891 380.005 423.068 390.268 413.82C401.101 404.981 410.223 415.588 411.221 426.195C416.067 466.041 389.983 470.392 395.684 494.327C397.11 500.038 399.818 506.566 403.239 509.83C405.519 512.414 410.223 513.637 410.793 509.014C412.219 503.302 402.241 491.607 409.083 488.071C413.929 486.167 419.203 490.247 421.484 494.463C428.61 506.566 422.339 528.732 404.664 523.701H404.522L404.379 523.429ZM398.963 421.844C392.976 419.94 390.41 459.377 395.542 461.145C398.392 462.097 400.103 454.753 400.673 452.17C401.956 445.234 403.951 426.467 399.105 421.844H398.963Z" fill="var(--fill-0, white)" stroke="var(--stroke-0, #EB3604)" stroke-width="3" stroke-miterlimit="10"/>
<path id="Vector_21" d="M358.339 492.287C361.475 496.639 357.057 502.486 352.638 507.518C346.794 513.774 340.095 519.621 337.529 527.645C335.676 532.676 337.671 539.204 344.371 536.756C352.495 533.356 355.061 522.613 360.477 517.037C364.183 512.686 370.17 512.006 372.451 518.533C374.446 524.109 374.161 530.772 376.299 536.212C378.01 541.924 386.704 554.299 375.586 554.979C372.023 554.979 367.604 552.667 363.471 551.579C358.91 550.219 354.633 550.491 349.787 551.443C345.368 552.259 340.095 553.483 335.533 552.667C321.85 550.355 319.427 536.484 324.13 525.197C326.696 517.309 348.504 483.856 358.197 492.287H358.339Z" fill="var(--fill-0, white)" stroke="var(--stroke-0, #EB3604)" stroke-width="3" stroke-miterlimit="10"/>
<g id="Group_5">
<g id="Vector_22">
<path d="M264.835 542.06C274.242 548.179 268.683 564.09 269.824 573.474C269.824 580.409 272.104 587.617 268.113 593.6C266.118 596.456 261.699 597.136 258.991 595.096C251.294 588.977 258.563 574.562 256.568 565.722C255.855 559.059 253.147 551.035 255.57 545.323C256.995 541.788 261.271 540.02 264.835 542.06Z" fill="var(--fill-0, white)"/>
<path d="M264.835 542.06C274.242 548.179 268.683 564.09 269.824 573.474C269.824 580.409 272.104 587.617 268.113 593.6C266.118 596.456 261.699 597.136 258.991 595.096C251.294 588.977 258.563 574.562 256.568 565.722C255.855 559.059 253.147 551.035 255.57 545.323C256.995 541.788 261.271 540.02 264.835 542.06ZM264.835 542.06H264.977" stroke="var(--stroke-0, #EB3604)" stroke-width="3" stroke-miterlimit="10"/>
</g>
<path id="Vector_23" d="M265.548 513.094C271.534 517.717 272.247 528.733 266.118 533.764C260.416 538.388 251.579 534.58 249.441 528.053C245.735 519.349 255.712 506.158 265.405 512.958H265.548V513.094Z" fill="var(--fill-0, white)" stroke="var(--stroke-0, #EB3604)" stroke-width="3" stroke-miterlimit="10"/>
</g>
<path id="Vector_24" d="M12.4008 442.922C8.83733 441.834 5.41643 440.746 2.70821 438.299C-0.997763 434.627 0.712688 431.091 6.12911 430.683C16.2493 430.139 25.0866 435.171 29.0777 422.524C32.6411 410.828 34.4941 396.413 45.0419 388.662C58.2979 378.599 78.8233 384.854 87.0904 397.909C89.6561 401.717 90.7964 406.069 90.0837 409.061C89.5136 412.052 86.2352 414.636 83.3845 413.276C80.8188 412.188 79.3934 409.877 77.683 406.749C75.2598 402.397 73.6919 396.957 69.8434 393.694C61.8613 387.302 51.0284 391.654 45.8971 399.949C41.906 405.933 35.2068 423.612 41.1933 429.459C45.612 433.131 53.309 431.227 58.868 431.907C61.7188 432.315 65.8523 432.587 65.5673 435.579C65.1397 436.939 63.5717 438.027 62.2889 438.707C58.1553 441.154 50.7434 442.378 46.1822 445.506C29.2202 457.473 54.5919 484.807 44.4717 503.982C42.9038 507.518 40.1956 510.918 36.7747 512.822C33.0687 515.133 28.0799 515.133 28.0799 509.966C28.2224 505.07 31.7859 499.902 33.3538 495.143C37.0598 485.215 34.0665 474.472 32.356 464.409C30.503 452.578 24.8015 446.186 12.5433 443.058H12.4008V442.922Z" fill="var(--fill-0, white)" stroke="var(--stroke-0, #EB3604)" stroke-width="3" stroke-miterlimit="10"/>
<path id="Vector_25" d="M245.307 487.799C250.439 487.119 256.283 486.031 261.271 487.799C264.977 489.295 266.973 492.151 265.69 495.007C263.837 498.271 259.561 499.223 255.855 499.495C240.603 499.495 230.483 497.863 227.918 515.677C227.062 524.109 226.92 532.404 226.492 540.972C225.922 550.219 227.632 559.874 225.779 568.85C223.641 580.817 209.53 581.089 209.815 568.306C210.1 562.322 212.809 556.611 214.234 550.763C215.802 544.915 216.087 538.932 216.657 532.812C216.942 524.245 218.938 514.726 215.802 506.566C211.526 496.367 198.982 500.718 189.575 499.767C180.738 499.495 176.319 492.151 186.439 488.751C192.141 486.983 200.693 488.207 206.537 487.119C214.804 485.759 217.655 478.96 217.37 471.344C217.37 462.505 212.951 452.85 213.806 444.282C214.804 436.939 222.786 436.803 225.637 444.282C228.773 452.306 228.345 461.417 229.058 469.985C229.913 481.272 231.053 490.519 245.165 487.663H245.307V487.799Z" fill="var(--fill-0, white)" stroke="var(--stroke-0, #EB3604)" stroke-width="3" stroke-miterlimit="10"/>
</g>
<defs>
<clipPath id="clip0_177_1729">
<rect width="446" height="597" fill="white"/>
</clipPath>
</defs>
</svg>
